# xmcd
#
# Track frame offsets:
#	150
#	20513
#	35634
#	47980
#	63914
#	80859
#	106783
#	122719
#	145825
#	165477
#	188622
#	213354
#	236125
#	256028
#	274578
#	292806
#	307858
#	321170
#	331762
#
# Disc length: 4650 seconds
#
# Revision: 0
# Processed by: cddbd v1.5.1PL0 Copyright (c) Steve Scherf et al.
# Submitted via: dBpowerAMP V4.0
#
DISCID=05122813
DTITLE=Third Stage American Made - Pit Road
DYEAR=1900
DGENRE=Country
TTITLE0=Only in America - Brooks and Dunn
TTITLE1=GOD Bless the U.S.A. - Lee Greenwood
TTITLE2=American Made - Oak Ridge Boys
TTITLE3=Born in the U.S.A. - Bruce Springsteen
TTITLE4=We're the Stars and Stripes - Aaron Tippon
TTITLE5=Traveling Soldier - Dixie Chicks
TTITLE6=This Ain't No Rag - Charlie Daniels
TTITLE7=Star Spangled Banner - Faith Hill
TTITLE8=America - Neil Diamond
TTITLE9=America Will Survive - Hank Williams Jr.
TTITLE10=Where Were You - Alan Jackson
TTITLE11=Red, White, and Blue - Lynyrd Skynyrd
TTITLE12=American Soldier - Toby Keith
TTITLE13=Some Gave All - Billy Ray Cyrus
TTITLE14=Have You Forgotton - Darryl Worley
TTITLE15=In America - Charlie Daniels
TTITLE16=R.O.C.K. in the U.S.A. - John Mellencamp
TTITLE17=The American Dream - Hank Williams Jr.
TTITLE18=We Shall Be Free - Garth Brooks
EXTD=
EXTT0=
EXTT1=
EXTT2=
EXTT3=
EXTT4=
EXTT5=
EXTT6=
EXTT7=
EXTT8=
EXTT9=
EXTT10=
EXTT11=
EXTT12=
EXTT13=
EXTT14=
EXTT15=
EXTT16=
EXTT17=
EXTT18=
PLAYORDER=
